<?xml version="1.0" encoding="UTF-8"?>
<svg width="512px" height="323px" viewBox="0 0 512 323" version="1.1" xmlns="http://www.w3.org/2000/svg" xmlns:xlink="http://www.w3.org/1999/xlink">
    <!-- Generator: Sketch 3.6.1 (26313) - http://www.bohemiancoding.com/sketch -->
    <title>csun@1.5x</title>
    <desc>Created with Sketch.</desc>
    <defs></defs>
    <g id="Page-1" stroke="none" stroke-width="1" fill="none" fill-rule="evenodd">
        <g id="Group-2" transform="translate(0.000000, -500.000000)">
            <g id="Group-3" transform="translate(0.000000, 500.000000)">
                <g id="moon@1.5x" transform="translate(281.991015, 43.701707)">
                    <g id="Page-1">
                        <g id="moon">
                            <g id="Layer_1">
                                <g id="Group">
                                    <ellipse id="Oval" fill="#022730" cx="114.820485" cy="115.004492" rx="114.820485" ry="114.820485"></ellipse>
                                    <path d="M33.4893082,33.6733154 C78.387062,-11.2244385 151.253908,-11.2244385 196.151662,33.6733154 C241.049416,78.5710692 241.049416,151.437916 196.151662,196.335669" id="Shape" fill="#022730"></path>
                                    <g transform="translate(40.481581, 32.201258)" fill="#DCF9F6">
                                        <ellipse id="Oval" cx="20.9768194" cy="163.398383" rx="1.10404313" ry="9.93638814"></ellipse>
                                        <ellipse id="Oval" cx="20.9768194" cy="163.766397" rx="9.93638814" ry="1.10404313"></ellipse>
                                        <ellipse id="Oval" transform="translate(155.702877, 37.253279) rotate(-45.137749) translate(-155.702877, -37.253279) " cx="155.702877" cy="37.2532792" rx="9.93632158" ry="1.10403573"></ellipse>
                                        <ellipse id="Oval" transform="translate(155.589007, 37.373057) rotate(45.137749) translate(-155.589007, -37.373057) " cx="155.589007" cy="37.3730573" rx="9.93632158" ry="1.10403573"></ellipse>
                                        <ellipse id="Oval" cx="128.069003" cy="6.62425876" rx="0.368014376" ry="4.41617251"></ellipse>
                                        <ellipse id="Oval" cx="128.069003" cy="6.62425876" rx="4.41617251" ry="0.368014376"></ellipse>
                                        <ellipse id="Oval" transform="translate(41.579384, 15.137830) rotate(224.708297) translate(-41.579384, -15.137830) " cx="41.5793838" cy="15.1378304" rx="4.78420298" ry="0.368015616"></ellipse>
                                        <ellipse id="Oval" transform="translate(41.627693, 15.061734) rotate(-44.708297) translate(-41.627693, -15.061734) " cx="41.6276934" cy="15.0617341" rx="4.78420298" ry="0.368015616"></ellipse>
                                        <ellipse id="Oval" transform="translate(3.942011, 135.908927) rotate(224.854148) translate(-3.942011, -135.908927) " cx="3.94201115" cy="135.908927" rx="4.78415652" ry="0.368012039"></ellipse>
                                        <ellipse id="Oval" transform="translate(4.203224, 135.795890) rotate(-44.854148) translate(-4.203224, -135.795890) " cx="4.20322405" cy="135.79589" rx="4.78415652" ry="0.368012039"></ellipse>
                                        <ellipse id="Oval" transform="translate(99.090632, 2.243721) rotate(-45.583390) translate(-99.090632, -2.243721) " cx="99.0906317" cy="2.24372066" rx="2.20817955" ry="0.368029924"></ellipse>
                                        <ellipse id="Oval" transform="translate(99.137259, 2.411157) rotate(45.583390) translate(-99.137259, -2.411157) " cx="99.1372585" cy="2.41115714" rx="2.20817955" ry="0.368029924"></ellipse>
                                        <ellipse id="Oval" transform="translate(58.648599, 173.300589) rotate(-45.291703) translate(-58.648599, -173.300589) " cx="58.6485985" cy="173.300589" rx="2.2080937" ry="0.368015616"></ellipse>
                                        <ellipse id="Oval" transform="translate(58.791794, 173.524501) rotate(45.291703) translate(-58.791794, -173.524501) " cx="58.7917943" cy="173.524501" rx="2.2080937" ry="0.368015616"></ellipse>
                                        <path d="M109.30027,124.020845 C68.8186882,124.020845 35.6973944,90.8995508 35.6973944,50.4179695 C35.6973944,37.9054807 39.0095238,26.1290207 44.5297394,15.8246181 C18.7687332,27.2330638 0.736028751,52.9940701 0.736028751,82.8032345 C0.736028751,123.284816 33.8573226,156.40611 74.3389039,156.40611 C102.307996,156.40611 126.96496,140.581491 139.109434,117.396586 C130.277089,121.444744 119.972686,124.020845 109.30027,124.020845 L109.30027,124.020845 L109.30027,124.020845 Z" id="Shape"></path>
                                    </g>
                                    <g transform="translate(56.582210, 71.302785)" id="Oval" fill="#78A8A0">
                                        <ellipse cx="7.08427673" cy="4.69218329" rx="4.41617251" ry="4.41617251"></ellipse>
                                        <ellipse cx="0.828032345" cy="21.2528302" rx="0.736028751" ry="0.736028751"></ellipse>
                                    </g>
                                    <circle id="Oval" fill="#DCF9F6" cx="93.107637" cy="72.3148248" r="3.68014376"></circle>
                                    <ellipse id="Oval" fill="#C3E5E0" cx="118.500629" cy="70.4747529" rx="1.10404313" ry="1.10404313"></ellipse>
                                    <circle id="Oval" fill="#78A8A0" cx="128.069003" cy="57.9622642" r="1.10404313"></circle>
                                    <circle id="Oval" fill="#DCF9F6" cx="92.7396226" cy="58.6982929" r="1.84007188"></circle>
                                    <ellipse id="Oval" fill="#95BFB9" cx="107.460198" cy="52.4420485" rx="0.736028751" ry="0.736028751"></ellipse>
                                    <g transform="translate(121.444744, 69.002695)" id="Oval" fill="#C3E5E0">
                                        <ellipse cx="2.944115" cy="25.7610063" rx="2.944115" ry="2.944115"></ellipse>
                                        <circle cx="25.0249775" cy="23.9209344" r="1.84007188"></circle>
                                        <ellipse cx="29.8091644" cy="2.944115" rx="2.944115" ry="2.944115"></ellipse>
                                    </g>
                                    <g transform="translate(69.002695, 123.744834)" id="Oval" fill="#DCF9F6">
                                        <ellipse cx="2.76010782" cy="12.236478" rx="2.57610063" ry="2.57610063"></ellipse>
                                        <ellipse cx="29.2571429" cy="1.19604672" rx="1.10404313" ry="1.10404313"></ellipse>
                                        <circle cx="42.137646" cy="28.7971249" r="4.41617251"></circle>
                                    </g>
                                    <ellipse id="Oval" fill="#78A8A0" cx="57.4102426" cy="117.212579" rx="2.944115" ry="2.944115"></ellipse>
                                    <circle id="Oval" fill="#C3E5E0" cx="122.916801" cy="115.372507" r="0.736028751"></circle>
                                    <circle id="Oval" fill="#95BFB9" cx="158.246181" cy="116.844564" r="1.84007188"></circle>
                                    <g transform="translate(75.442947, 138.925427)" id="Oval" fill="#DCF9F6">
                                        <ellipse cx="4.78418688" cy="17.2966757" rx="4.41617251" ry="4.41617251"></ellipse>
                                        <ellipse cx="13.6165319" cy="1.4720575" rx="1.4720575" ry="1.4720575"></ellipse>
                                    </g>
                                    <circle id="Oval" fill="#C3E5E0" cx="134.693261" cy="157.69416" r="1.4720575"></circle>
                                    <g transform="translate(92.003594, 148.125786)" id="Oval" fill="#95BFB9">
                                        <circle cx="19.1367475" cy="21.7128482" r="1.10404313"></circle>
                                        <ellipse cx="0.736028751" cy="19.8727763" rx="0.736028751" ry="0.736028751"></ellipse>
                                        <ellipse cx="61.0903863" cy="2.944115" rx="2.944115" ry="2.944115"></ellipse>
                                    </g>
                                    <circle id="Oval" fill="#C3E5E0" cx="130.645103" cy="172.782749" r="1.84007188"></circle>
                                    <ellipse id="Oval" fill="#DCF9F6" cx="112.980413" cy="133.037197" rx="1.4720575" ry="1.4720575"></ellipse>
                                    <circle id="Oval" fill="#95BFB9" cx="162.662354" cy="138.189398" r="2.944115"></circle>
                                    <circle id="Oval" fill="#78A8A0" cx="61.8264151" cy="148.861815" r="2.57610063"></circle>
                                </g>
                            </g>
                        </g>
                    </g>
                </g>
                <g id="sun">
                    <g id="sun@1.5x" transform="translate(161.466307, 161.466307) rotate(-225.000000) translate(-161.466307, -161.466307) translate(47.381851, 47.381851)">
                        <g id="Page-1">
                            <g id="sun">
                                <g id="summer">
                                    <g id="Layer_1">
                                        <path d="M114.084456,187.687332 C73.2348607,187.687332 40.4815813,154.566038 40.4815813,114.084456 C40.4815813,73.6028751 73.6028751,40.4815813 114.084456,40.4815813 C154.566038,40.4815813 187.687332,73.6028751 187.687332,114.084456 C187.687332,154.566038 154.934052,187.687332 114.084456,187.687332 L114.084456,187.687332 L114.084456,187.687332 Z M114.084456,73.2348607 C91.6355795,73.2348607 73.2348607,91.6355795 73.2348607,114.084456 C73.2348607,136.533333 91.6355795,154.934052 114.084456,154.934052 C136.533333,154.934052 154.934052,136.533333 154.934052,114.084456 C154.934052,91.6355795 136.533333,73.2348607 114.084456,73.2348607 L114.084456,73.2348607 L114.084456,73.2348607 Z" id="Shape" fill="#F7B208"></path>
                                        <ellipse id="Oval" fill="#F4840B" cx="114.084456" cy="10.3044025" rx="10.3044025" ry="10.3044025"></ellipse>
                                        <ellipse id="Oval" fill="#F7B208" cx="114.084456" cy="217.86451" rx="10.3044025" ry="10.3044025"></ellipse>
                                        <path d="M71.0267745,19.1367475 C73.9708895,23.9209344 72.1308176,30.1771788 67.3466307,33.1212938 C62.5624438,36.0654088 56.3061995,34.2253369 53.3620845,29.44115 C50.4179695,24.6569632 52.2580413,18.4007188 57.0422282,15.4566038 C61.8264151,12.5124888 68.0826595,13.9845463 71.0267745,19.1367475 L71.0267745,19.1367475 L71.0267745,19.1367475 Z" id="Shape" fill="#F4840B"></path>
                                        <g id="Group" transform="translate(13.800539, 51.522013)" fill="#F7B208">
                                            <circle id="Oval" cx="152.173944" cy="152.357951" r="10.3044025"></circle>
                                            <path d="M15.640611,1.84007188 C20.4247978,4.78418688 22.2648697,11.0404313 19.3207547,15.8246181 C16.3766397,20.608805 10.1203953,22.4488769 5.33620845,19.5047619 C0.552021563,16.5606469 -1.28805031,10.3044025 1.65606469,5.52021563 C4.23216532,0.736028751 10.4884097,-1.10404313 15.640611,1.84007188 L15.640611,1.84007188 L15.640611,1.84007188 Z" id="Shape"></path>
                                        </g>
                                        <circle id="Oval" fill="#F4840B" cx="203.879964" cy="165.974483" r="10.3044025"></circle>
                                        <path d="M20.608805,114.084456 C20.608805,119.604672 16.1926325,124.388859 10.3044025,124.388859 C4.41617251,124.388859 0,119.604672 0,114.084456 C0,108.564241 4.41617251,103.780054 10.3044025,103.780054 C15.8246181,103.780054 20.608805,108.196226 20.608805,114.084456 Z" id="Shape" fill="#F7B208"></path>
                                        <path d="M217.86451,103.780054 C223.384726,103.780054 228.168913,108.196226 228.168913,114.084456 C228.168913,119.604672 223.75274,124.388859 217.86451,124.388859 C211.97628,124.388859 207.560108,119.972686 207.560108,114.084456 C207.560108,108.564241 212.344295,103.780054 217.86451,103.780054 L217.86451,103.780054 L217.86451,103.780054 Z" id="Shape" fill="#F4840B"></path>
                                        <ellipse id="Oval" fill="#F7B208" cx="24.2889488" cy="165.974483" rx="10.3044025" ry="10.3044025"></ellipse>
                                        <path d="M198.727763,53.3620845 C203.51195,50.4179695 209.768194,52.2580413 212.712309,57.0422282 C215.656424,61.8264151 213.816352,68.0826595 209.032165,71.0267745 C204.247978,73.9708895 197.991734,72.1308176 195.047619,67.3466307 C192.471518,62.5624438 193.943576,55.9381851 198.727763,53.3620845 L198.727763,53.3620845 L198.727763,53.3620845 Z" id="Shape" fill="#F4840B"></path>
                                        <path d="M53.3620845,198.727763 C56.3061995,193.943576 62.5624438,192.103504 67.3466307,195.047619 C72.1308176,197.991734 73.9708895,204.247978 71.0267745,209.032165 C68.0826595,213.816352 61.8264151,215.656424 57.0422282,212.712309 C52.2580413,210.136208 50.4179695,203.879964 53.3620845,198.727763 L53.3620845,198.727763 L53.3620845,198.727763 Z" id="Shape" fill="#F7B208"></path>
                                        <g id="Group" transform="translate(55.662174, 13.800539)" fill="#F4840B">
                                            <path d="M101.479964,5.33620845 C104.424079,0.552021563 110.680323,-1.28805031 115.46451,1.65606469 C120.248697,4.60017969 122.088769,10.8564241 119.144654,15.640611 C116.200539,20.4247978 109.944295,22.2648697 105.160108,19.3207547 C100.375921,16.3766397 98.5358491,10.1203953 101.479964,5.33620845 L101.479964,5.33620845 L101.479964,5.33620845 Z" id="Shape"></path>
                                            <path d="M0.276010782,55.3861635 L23.8289308,78.9390836 C31.1892183,67.5306379 44.0697215,59.802336 58.4222821,59.802336 C80.871159,59.802336 99.2718778,78.2030548 99.2718778,100.651932 C99.2718778,115.372507 91.5435759,128.25301 80.1351303,135.245283 L103.68805,158.798203 C120.984726,144.813657 132.025157,123.836837 132.025157,100.283917 C132.025157,59.4343217 99.2718778,26.6810422 58.4222821,26.6810422 C34.8693621,26.6810422 13.8925427,38.0894879 0.276010782,55.3861635 Z" id="Shape"></path>
                                        </g>
                                    </g>
                                </g>
                            </g>
                        </g>
                    </g>
                </g>
            </g>
        </g>
        <g id="csun"></g>
    </g>
</svg>