<?xml version="1.0" encoding="UTF-8"?>
<svg width="1536px" height="1536px" viewBox="0 0 1536 1536" version="1.1" xmlns="http://www.w3.org/2000/svg" xmlns:xlink="http://www.w3.org/1999/xlink">
    <!-- Generator: Sketch 3.6.1 (26313) - http://www.bohemiancoding.com/sketch -->
    <title>ioslogo@1.5x</title>
    <desc>Created with Sketch.</desc>
    <defs></defs>
    <g id="Page-1" stroke="none" stroke-width="1" fill="none" fill-rule="evenodd">
        <g id="ioslogo">
            <g id="udayam">
                <g id="sun" transform="translate(2.638148, 0.000000)">
                    <g id="sun@1.5x" transform="translate(786.546255, 768.144823) rotate(-225.000000) translate(-786.546255, -768.144823) translate(261.513528, 228.235048)">
                        <g id="Page-1" transform="translate(0.000000, 0.000000)">
                            <g id="sun">
                                <g id="summer">
                                    <g id="Layer_1">
                                        <path d="M524.856497,886.762084 C336.92401,886.762084 186.239402,730.274657 186.239402,539.012247 C186.239402,347.749837 338.617095,191.26241 524.856497,191.26241 C711.095899,191.26241 863.473592,347.749837 863.473592,539.012247 C863.473592,730.274657 712.788985,886.762084 524.856497,886.762084 L524.856497,886.762084 L524.856497,886.762084 Z M524.856497,346.011088 C421.578283,346.011088 336.92401,432.948547 336.92401,539.012247 C336.92401,645.075947 421.578283,732.013407 524.856497,732.013407 C628.134711,732.013407 712.788985,645.075947 712.788985,539.012247 C712.788985,432.948547 628.134711,346.011088 524.856497,346.011088 L524.856497,346.011088 L524.856497,346.011088 Z" id="Shape" fill="#F7B208"></path>
                                        <ellipse id="Oval" fill="#F4840B" cx="524.856497" cy="48.6849772" rx="47.4063933" ry="48.6849772"></ellipse>
                                        <ellipse id="Oval" fill="#F7B208" cx="524.856497" cy="1029.33952" rx="47.4063933" ry="48.6849772"></ellipse>
                                        <path d="M326.765497,90.4149576 C340.31018,113.018697 331.844753,142.577433 309.834642,156.487427 C287.824531,170.39742 259.042078,161.703674 245.497394,139.099935 C231.95271,116.496195 240.418137,86.9374592 262.428249,73.0274657 C284.43836,59.1174723 313.220813,66.072469 326.765497,90.4149576 L326.765497,90.4149576 L326.765497,90.4149576 Z" id="Shape" fill="#F4840B"></path>
                                        <g id="Group" transform="translate(63.490705, 243.424886)" fill="#F7B208">
                                            <ellipse id="Oval" cx="700.090844" cy="719.842162" rx="47.4063933" ry="48.6849772"></ellipse>
                                            <path d="M71.9561327,8.69374592 C93.9662439,22.6037394 102.431671,52.1624755 88.8869874,74.7662149 C75.3423036,97.3699543 46.5598506,106.0637 24.5497394,92.1537068 C2.53962821,78.2437133 -5.92579916,48.6849772 7.61888464,26.0812378 C19.470483,3.47749837 48.252936,-5.21624755 71.9561327,8.69374592 L71.9561327,8.69374592 L71.9561327,8.69374592 Z" id="Shape"></path>
                                        </g>
                                        <ellipse id="Oval" fill="#F4840B" cx="937.969353" cy="784.175882" rx="47.4063933" ry="48.6849772"></ellipse>
                                        <path d="M94.8127866,539.012247 C94.8127866,565.093485 74.4957609,587.697224 47.4063933,587.697224 C20.3170257,587.697224 0,565.093485 0,539.012247 C0,512.931009 20.3170257,490.32727 47.4063933,490.32727 C72.8026754,490.32727 94.8127866,511.19226 94.8127866,539.012247 Z" id="Shape" fill="#F7B208"></path>
                                        <path d="M1002.3066,490.32727 C1027.70288,490.32727 1049.71299,511.19226 1049.71299,539.012247 C1049.71299,565.093485 1029.39597,587.697224 1002.3066,587.697224 C975.217234,587.697224 954.900208,566.832234 954.900208,539.012247 C954.900208,512.931009 976.910319,490.32727 1002.3066,490.32727 L1002.3066,490.32727 L1002.3066,490.32727 Z" id="Shape" fill="#F4840B"></path>
                                        <ellipse id="Oval" fill="#F7B208" cx="111.743641" cy="784.175882" rx="47.4063933" ry="48.6849772"></ellipse>
                                        <path d="M914.266156,252.118632 C936.276268,238.208638 965.058721,246.902384 978.603405,269.506124 C992.148088,292.109863 983.682661,321.668599 961.67255,335.578593 C939.662439,349.488586 910.879986,340.79484 897.335302,318.191101 C885.483703,295.587361 892.256045,264.289876 914.266156,252.118632 L914.266156,252.118632 L914.266156,252.118632 Z" id="Shape" fill="#F4840B"></path>
                                        <path d="M245.497394,938.92456 C259.042078,916.32082 287.824531,907.627074 309.834642,921.537068 C331.844753,935.447061 340.31018,965.005797 326.765497,987.609537 C313.220813,1010.21328 284.43836,1018.90702 262.428249,1004.99703 C240.418137,992.825784 231.95271,963.267048 245.497394,938.92456 L245.497394,938.92456 L245.497394,938.92456 Z" id="Shape" fill="#F7B208"></path>
                                        <g id="Group" transform="translate(256.079178, 65.203094)" fill="#F4840B">
                                            <path d="M466.86832,25.2118632 C480.413004,2.60812378 509.195457,-6.08562214 531.205568,7.82437133 C553.215679,21.7343648 561.681106,51.2931009 548.136423,73.8968403 C534.591739,96.5005797 505.809286,105.194326 483.799174,91.2843322 C461.789063,77.3743387 453.323636,47.8156026 466.86832,25.2118632 L466.86832,25.2118632 L466.86832,25.2118632 Z" id="Shape"></path>
                                            <path d="M1.26981411,261.681752 L109.627285,372.9617 C143.488994,319.060475 202.746986,282.546742 268.777319,282.546742 C372.055533,282.546742 456.709807,369.484202 456.709807,475.547902 C456.709807,545.097869 421.155012,605.954091 368.669362,638.990325 L477.026833,750.270273 C556.60185,684.197804 607.394414,585.089101 607.394414,473.809153 C607.394414,280.807993 456.709807,126.059316 268.777319,126.059316 C160.419849,126.059316 63.9139767,179.960541 1.26981411,261.681752 Z" id="Shape"></path>
                                        </g>
                                    </g>
                                </g>
                            </g>
                        </g>
                    </g>
                    <rect id="Rectangle-1" fill="#F7EDD3" x="0" y="725.181911" width="1462.40258" height="652.030944"></rect>
                </g>
                <path d="M757.262726,1183.99756 L757.262726,1167.44304 C756.703874,1158.14923 756.424452,1150.30769 756.424452,1143.91819 L593.799378,876.431963 C583.181193,859.006063 576.475071,848.841107 573.680812,845.936791 C565.298035,837.22384 554.95943,832.867431 542.66469,832.867431 C535.958468,832.867431 530.928877,833.157858 527.575765,833.738721 L520.031303,833.738721 C516.11934,834.319585 513.325123,834.610012 511.648568,834.610012 C485.941383,834.610012 473.087983,824.445056 473.087983,804.114839 C473.087983,783.203759 484.264852,772.748376 506.618926,772.748376 C515.560556,772.748376 526.737425,773.910085 540.149869,776.233538 C566.974758,780.880445 592.122714,783.203864 615.594491,783.203864 C632.918898,783.203864 658.905119,780.590018 693.553934,775.362248 C705.289822,773.619658 715.349005,772.748376 723.731783,772.748376 C746.644708,772.748376 758.100999,782.913332 758.100999,803.243549 C758.100999,822.992902 744.409334,832.867431 717.025594,832.867431 L708.642858,831.99614 L687.686019,831.99614 L670.920547,831.124849 C664.214325,830.543986 660.861264,832.867405 660.861264,838.095175 C660.861264,840.418628 661.140686,842.015978 661.699538,842.887273 C662.25839,843.758568 663.655498,846.2272 665.890906,850.293244 L794.146763,1076.82881 L924.079167,850.293244 C926.873427,845.646337 928.270535,840.9995 928.270535,836.352593 C928.270535,831.124823 924.638053,828.510977 917.372979,828.510977 L915.696432,828.510977 L900.607507,829.382268 L878.812394,831.99614 C869.311913,833.157867 862.046948,833.738721 857.017281,833.738721 C834.104356,833.738721 822.648065,823.573765 822.648065,803.243549 C822.648065,782.913332 833.824934,772.748376 856.179008,772.748376 C864.561785,772.748376 874.620968,773.619658 886.356856,775.362248 C917.65256,780.009154 944.756468,782.332573 967.669393,782.332573 C991.700023,782.332573 1018.24509,780.009154 1047.30538,775.362248 C1058.48242,773.619658 1067.98276,772.748376 1075.80668,772.748376 C1097.04306,772.748376 1107.66108,782.913332 1107.66108,803.243549 C1107.66108,821.831175 1097.32248,831.124849 1076.64496,831.124849 C1068.26218,831.124849 1061.83548,830.543995 1057.36467,829.382268 C1048.42304,828.220541 1042.27576,827.639687 1038.92265,827.639687 C1024.3925,827.639687 1012.65679,834.609942 1003.71516,848.550663 L991.141054,868.590348 L826.001159,1137.81916 L826.001159,1174.41337 C826.001159,1233.66143 828.376244,1270.5457 833.126484,1285.06728 C837.876725,1299.58886 849.752149,1306.84955 868.753111,1306.84955 C873.223926,1306.84955 880.069759,1306.12348 889.290814,1304.67132 C898.511869,1303.21916 905.357702,1302.49309 909.828517,1302.49309 C927.152924,1302.49309 935.814998,1311.78677 935.814998,1330.37439 C935.814998,1351.28547 923.24102,1361.74086 898.092687,1361.74086 L893.063045,1361.74086 C890.827638,1361.15999 888.871686,1360.86957 887.19513,1360.86957 L841.090083,1354.77053 C823.765676,1352.44708 806.72095,1351.28537 789.955395,1351.28537 C772.072136,1351.28537 755.02741,1352.44708 738.820707,1354.77053 L696.068754,1360.86957 C694.951051,1360.86957 693.27452,1361.15999 691.039113,1361.74086 L685.171198,1361.74086 C660.022865,1361.74086 647.448887,1351.5759 647.448887,1331.24568 C647.448887,1312.07719 656.390382,1302.49309 674.273641,1302.49309 C678.744456,1302.49309 685.310867,1303.21916 693.973071,1304.67132 C702.635274,1306.12348 709.201685,1306.84955 713.6725,1306.84955 C737.144277,1306.84955 751.394785,1291.4569 756.424452,1260.67114 C756.983304,1255.44337 757.262726,1229.88577 757.262726,1183.99756 L757.262726,1183.99756 Z" id="UdaYam" fill="#8F7140"></path>
            </g>
        </g>
    </g>
</svg>