<?xml version="1.0" encoding="UTF-8"?>
<svg width="496px" height="496px" viewBox="0 0 496 496" version="1.1" xmlns="http://www.w3.org/2000/svg" xmlns:xlink="http://www.w3.org/1999/xlink">
    <!-- Generator: Sketch 3.6.1 (26313) - http://www.bohemiancoding.com/sketch -->
    <title>sun@1.5x</title>
    <desc>Created with Sketch.</desc>
    <defs></defs>
    <g id="Page-1" stroke="none" stroke-width="1" fill="none" fill-rule="evenodd">
        <g id="sun">
            <g id="summer">
                <g id="Layer_1">
                    <path d="M248,408 C159.2,408 88,336 88,248 C88,160 160,88 248,88 C336,88 408,160 408,248 C408,336 336.8,408 248,408 L248,408 Z M248,159.2 C199.2,159.2 159.2,199.2 159.2,248 C159.2,296.8 199.2,336.8 248,336.8 C296.8,336.8 336.8,296.8 336.8,248 C336.8,199.2 296.8,159.2 248,159.2 L248,159.2 Z" id="Shape" fill="#F7B208"></path>
                    <circle id="Oval" fill="#F4840B" cx="248" cy="22.4" r="22.4"></circle>
                    <circle id="Oval" fill="#F7B208" cx="248" cy="473.6" r="22.4"></circle>
                    <path d="M154.4,41.6 C160.8,52 156.8,65.6 146.4,72 C136,78.4 122.4,74.4 116,64 C109.6,53.6 113.6,40 124,33.6 C134.4,27.2 148,30.4 154.4,41.6 L154.4,41.6 Z" id="Shape" fill="#F4840B"></path>
                    <g id="Group" transform="translate(30.000000, 112.000000)" fill="#F7B208">
                        <circle id="Oval" cx="330.8" cy="331.2" r="22.4"></circle>
                        <path d="M34,4 C44.4,10.4 48.4,24 42,34.4 C35.6,44.8 22,48.8 11.6,42.4 C1.2,36 -2.8,22.4 3.6,12 C9.2,1.6 22.8,-2.4 34,4 L34,4 Z" id="Shape"></path>
                    </g>
                    <circle id="Oval" fill="#F4840B" cx="443.2" cy="360.8" r="22.4"></circle>
                    <path d="M22.4,225.6 C34.4,225.6 44.8,235.2 44.8,248 C44.8,260 35.2,270.4 22.4,270.4 C9.6,270.4 0,260 0,248 C0,236 9.6,225.6 22.4,225.6 L22.4,225.6 Z" id="Shape" fill="#F7B208"></path>
                    <path d="M473.6,225.6 C485.6,225.6 496,235.2 496,248 C496,260 486.4,270.4 473.6,270.4 C460.8,270.4 451.2,260.8 451.2,248 C451.2,236 461.6,225.6 473.6,225.6 L473.6,225.6 Z" id="Shape" fill="#F4840B"></path>
                    <circle id="Oval" fill="#F7B208" cx="52.8" cy="360.8" r="22.4"></circle>
                    <path d="M432,116 C442.4,109.6 456,113.6 462.4,124 C468.8,134.4 464.8,148 454.4,154.4 C444,160.8 430.4,156.8 424,146.4 C418.4,136 421.6,121.6 432,116 L432,116 Z" id="Shape" fill="#F4840B"></path>
                    <path d="M116,432 C122.4,421.6 136,417.6 146.4,424 C156.8,430.4 160.8,444 154.4,454.4 C148,464.8 134.4,468.8 124,462.4 C113.6,456.8 109.6,443.2 116,432 L116,432 Z" id="Shape" fill="#F7B208"></path>
                    <g id="Group" transform="translate(121.000000, 30.000000)" fill="#F4840B">
                        <path d="M220.6,11.6 C227,1.2 240.6,-2.8 251,3.6 C261.4,10 265.4,23.6 259,34 C252.6,44.4 239,48.4 228.6,42 C218.2,35.6 214.2,22 220.6,11.6 L220.6,11.6 Z" id="Shape"></path>
                        <path d="M127,58 C75.8,58 30.2,82.8 0.6,120.4 L51.8,171.6 C67.8,146.8 95.8,130 127,130 C175.8,130 215.8,170 215.8,218.8 C215.8,250.8 199,278.8 174.2,294 L225.4,345.2 C263,314.8 287,269.2 287,218 C287,129.2 215.8,58 127,58 L127,58 Z" id="Shape"></path>
                    </g>
                </g>
            </g>
        </g>
    </g>
</svg>