<?xml version="1.0" encoding="UTF-8"?>
<svg width="512px" height="268px" viewBox="0 0 512 268" version="1.1" xmlns="http://www.w3.org/2000/svg" xmlns:xlink="http://www.w3.org/1999/xlink">
    <!-- Generator: Sketch 3.6.1 (26313) - http://www.bohemiancoding.com/sketch -->
    <title>udayam@1.5x</title>
    <desc>Created with Sketch.</desc>
    <defs></defs>
    <g id="Page-1" stroke="none" stroke-width="1" fill="none" fill-rule="evenodd">
        <g id="udayam">
            <g transform="translate(1.000000, -1.000000)">
                <g id="sun" transform="translate(127.472325, 0.000000)">
                    <g id="sun@1.5x" transform="translate(140.820456, 133.025080) rotate(-225.000000) translate(-140.820456, -133.025080) translate(46.820456, 39.525080)">
                        <g id="Page-1" transform="translate(0.000000, 0.000000)">
                            <g id="sun">
                                <g id="summer">
                                    <g id="Layer_1">
                                        <path d="M93.9684484,153.566871 C60.3216814,153.566871 33.343643,126.466835 33.343643,93.3445688 C33.343643,60.2223025 60.6248054,33.1222664 93.9684484,33.1222664 C127.312091,33.1222664 154.593254,60.2223025 154.593254,93.3445688 C154.593254,126.466835 127.615215,153.566871 93.9684484,153.566871 L93.9684484,153.566871 L93.9684484,153.566871 Z M93.9684484,59.921191 C75.4778827,59.921191 60.3216814,74.9767666 60.3216814,93.3445688 C60.3216814,111.712371 75.4778827,126.767947 93.9684484,126.767947 C112.459014,126.767947 127.615215,111.712371 127.615215,93.3445688 C127.615215,74.9767666 112.459014,59.921191 93.9684484,59.921191 L93.9684484,59.921191 L93.9684484,59.921191 Z" id="Shape" fill="#F7B208"></path>
                                        <ellipse id="Oval" fill="#F4840B" cx="93.9684484" cy="8.43112235" rx="8.48747276" ry="8.43112235"></ellipse>
                                        <ellipse id="Oval" fill="#F7B208" cx="93.9684484" cy="178.258015" rx="8.48747276" ry="8.43112235"></ellipse>
                                        <path d="M58.5029372,15.6577986 C60.9279294,19.5722483 59.4123093,24.691144 55.471697,27.1000361 C51.5310846,29.5089282 46.3779761,28.0033707 43.9529839,24.088921 C41.5279917,20.1744713 43.0436118,15.0555756 46.9842242,12.6466835 C50.9248366,10.2377914 56.077945,11.4422375 58.5029372,15.6577986 L58.5029372,15.6577986 L58.5029372,15.6577986 Z" id="Shape" fill="#F4840B"></path>
                                        <g id="Group" transform="translate(11.367151, 42.155612)" fill="#F7B208">
                                            <ellipse id="Oval" cx="125.341785" cy="124.660166" rx="8.48747276" ry="8.43112235"></ellipse>
                                            <path d="M12.8827712,1.50555756 C16.8233835,3.91444966 18.3390036,9.03334537 15.9140114,12.947795 C13.4890192,16.8622447 8.33591074,18.3678023 4.39529839,15.9589102 C0.454686041,13.5500181 -1.06093409,8.43112235 1.36405812,4.51667269 C3.48592631,0.602223025 8.63903477,-0.903334537 12.8827712,1.50555756 L12.8827712,1.50555756 L12.8827712,1.50555756 Z" id="Shape"></path>
                                        </g>
                                        <ellipse id="Oval" fill="#F4840B" cx="167.930711" cy="135.801292" rx="8.48747276" ry="8.43112235"></ellipse>
                                        <path d="M16.9749455,93.3445688 C16.9749455,97.8612415 13.3374572,101.775691 8.48747276,101.775691 C3.63748833,101.775691 0,97.8612415 0,93.3445688 C0,88.8278962 3.63748833,84.9134465 8.48747276,84.9134465 C13.0343332,84.9134465 16.9749455,88.5267846 16.9749455,93.3445688 Z" id="Shape" fill="#F7B208"></path>
                                        <path d="M179.449424,84.9134465 C183.996284,84.9134465 187.936897,88.5267846 187.936897,93.3445688 C187.936897,97.8612415 184.299408,101.775691 179.449424,101.775691 C174.59944,101.775691 170.961951,98.162353 170.961951,93.3445688 C170.961951,88.8278962 174.902564,84.9134465 179.449424,84.9134465 L179.449424,84.9134465 L179.449424,84.9134465 Z" id="Shape" fill="#F4840B"></path>
                                        <ellipse id="Oval" fill="#F7B208" cx="20.0061858" cy="135.801292" rx="8.48747276" ry="8.43112235"></ellipse>
                                        <path d="M163.686975,43.6611693 C167.627587,41.2522772 172.780695,42.7578348 175.205688,46.6722844 C177.63068,50.5867341 176.11506,55.7056298 172.174447,58.1145219 C168.233835,60.523414 163.080727,59.0178564 160.655734,55.1034068 C158.533866,51.1889571 159.746362,45.7689499 163.686975,43.6611693 L163.686975,43.6611693 L163.686975,43.6611693 Z" id="Shape" fill="#F4840B"></path>
                                        <path d="M43.9529839,162.600217 C46.3779761,158.685767 51.5310846,157.180209 55.471697,159.589102 C59.4123093,161.997994 60.9279294,167.116889 58.5029372,171.031339 C56.077945,174.945789 50.9248366,176.451346 46.9842242,174.042454 C43.0436118,171.934674 41.5279917,166.815778 43.9529839,162.600217 L43.9529839,162.600217 L43.9529839,162.600217 Z" id="Shape" fill="#F7B208"></path>
                                        <g id="Group" transform="translate(45.847509, 11.291682)" fill="#F4840B">
                                            <path d="M83.5864505,4.36611693 C86.0114427,0.451667269 91.1645511,-1.05389029 95.1051635,1.35500181 C99.0457759,3.7638939 100.561396,8.88278962 98.1364038,12.7972393 C95.7114116,16.7116889 90.5583031,18.2172465 86.6176907,15.8083544 C82.6770784,13.3994623 81.1614583,8.28056659 83.5864505,4.36611693 L83.5864505,4.36611693 L83.5864505,4.36611693 Z" id="Shape"></path>
                                            <path d="M0.22734302,45.3172826 L19.6272808,64.5884194 C25.6897613,55.2539625 36.2991022,48.9306208 48.1209393,48.9306208 C66.611505,48.9306208 81.7677063,63.9861964 81.7677063,82.3539986 C81.7677063,94.3984591 75.4021017,104.937362 66.0052569,110.658481 L85.4051946,129.929618 C99.6520239,118.48738 108.745745,101.324024 108.745745,82.0528871 C108.745745,48.6295092 81.7677063,21.8305846 48.1209393,21.8305846 C28.7210016,21.8305846 11.442932,31.1650415 0.22734302,45.3172826 Z" id="Shape"></path>
                                        </g>
                                    </g>
                                </g>
                            </g>
                        </g>
                    </g>
                    <rect id="Rectangle-1" fill="#F7EDD3" x="0" y="125.584888" width="261.823378" height="112.916817"></rect>
                </g>
                <path d="M24.0294317,186.274817 L23.7876015,194.005296 L23.303941,203.789183 L23.303941,222.390648 C23.303941,228.027484 23.9286629,232.134259 25.1781255,234.711099 C26.427588,237.287938 28.7854095,239.301063 32.2516605,240.750535 C35.4760801,242.119481 38.7810606,242.803944 42.1667011,242.803944 C46.600278,242.803944 50.3889142,241.958431 53.5327232,240.26738 C56.6765323,238.57633 58.7119166,236.301498 59.6389373,233.442817 C60.5659579,230.584136 61.0697659,226.940379 61.1503764,222.511437 L61.3922066,191.468732 C61.3922066,185.348739 61.3115974,181.886164 61.1503764,181.080901 C60.424882,176.974064 58.3693453,174.920676 54.9837048,174.920676 C54.4194314,174.920676 53.6133386,175.001201 52.5654022,175.162254 C51.0338029,175.403832 49.9455776,175.52462 49.3006937,175.52462 C48.2527574,175.52462 47.345903,175.121995 46.5801033,174.316732 C45.8143037,173.51147 45.4314096,172.585432 45.4314096,171.538592 C45.4314096,168.639647 47.2048138,167.190197 50.7516753,167.190197 C51.3159487,167.190197 51.8802137,167.23046 52.4444871,167.310986 L59.5784797,168.277296 C61.3519105,168.518874 63.3671425,168.639662 65.6242362,168.639662 C67.8007194,168.639662 69.6144282,168.518874 71.065417,168.277296 L76.2647675,167.431775 C77.7157563,167.190196 78.6830677,167.069408 79.1667306,167.069408 C82.5523712,167.069408 84.2451661,168.438334 84.2451661,171.176225 C84.2451661,173.914117 82.5926758,175.283042 79.2876458,175.283042 L77.9575793,175.283042 C77.7157479,175.202516 77.3127015,175.162254 76.748428,175.162254 C74.3301134,175.162254 72.8388417,176.370129 72.2745683,178.785915 C71.7102948,181.201702 71.4281624,187.402128 71.4281624,197.38738 L71.4281624,218.525408 C71.4281624,223.759613 71.2669438,227.544289 70.9445018,229.879549 C70.2996179,233.905861 68.9292602,237.408699 66.8333875,240.388169 C61.9967581,247.393951 53.8149162,250.896789 42.2876162,250.896789 C28.1001701,250.896789 18.9510169,246.2666 14.8398819,237.006085 C13.5501141,234.187667 12.9052399,229.799053 12.9052399,223.840113 C12.9052399,220.941169 13.0261538,216.653211 13.2679852,210.976113 C13.5098167,205.299014 13.6307306,201.011057 13.6307306,198.112113 L13.6307306,191.71031 C13.6307306,185.831895 13.590426,182.53037 13.5098155,181.805634 C12.9455421,177.376691 11.3736611,175.162254 8.79412546,175.162254 L7.94771956,175.162254 C7.54466711,175.24278 7.18192535,175.303174 6.85948339,175.343437 C6.53704144,175.3837 6.01308112,175.403831 5.28758672,175.403831 C1.90194617,175.403831 0.209151292,174.034906 0.209151292,171.297014 C0.209151292,168.559122 1.74072761,167.190197 4.8039262,167.190197 C6.09369403,167.190197 7.46405179,167.310985 8.91504059,167.552563 C12.8649546,168.196773 16.5326768,168.518873 19.9183173,168.518873 C23.3845684,168.518873 27.3747277,168.156511 31.8889151,167.431775 C32.856241,167.270722 33.9041616,167.190197 35.0327085,167.190197 C38.3377385,167.190197 39.9902288,168.559122 39.9902288,171.297014 C39.9902288,174.034906 38.5795664,175.403831 35.7581993,175.403831 C35.1133153,175.403831 34.146004,175.303175 32.8562362,175.101859 C31.5664683,174.900544 30.599157,174.799887 29.9542731,174.799887 C27.3747374,174.799887 25.6416379,176.168813 24.7549225,178.906704 C24.3518701,180.114598 24.1100422,182.570611 24.0294317,186.274817 L24.0294317,186.274817 Z M116.650421,185.791662 C124.630859,185.791662 130.595946,188.891875 134.54586,195.092394 L134.54586,182.892732 C134.54586,179.671683 134.46525,177.698821 134.30403,176.974085 C133.900977,174.477772 132.772447,173.229634 130.918406,173.229634 C130.273522,173.229634 129.366668,173.350421 128.197815,173.592 C127.028963,173.833579 126.122109,173.954366 125.477225,173.954366 C122.494637,173.954366 121.003365,172.665966 121.003365,170.089127 C121.003365,167.431761 123.018597,166.103099 127.049122,166.103099 C127.694006,166.103099 128.86284,166.183624 130.555661,166.344676 C133.135196,166.586255 134.465249,166.707042 134.54586,166.707042 C135.271354,166.707042 136.319275,166.626517 137.689653,166.465465 C139.060031,166.304412 140.107952,166.223887 140.833446,166.223887 C143.09054,166.223887 144.21907,167.834388 144.21907,171.055437 L144.21907,172.384113 C144.13846,172.625691 144.05785,174.759604 143.97724,178.785915 C143.97724,179.269073 143.856326,182.369286 143.614494,188.086648 C143.453273,192.112959 143.372664,195.17291 143.372664,197.266592 L143.372664,209.103887 L143.614494,229.275606 C143.695105,234.590336 143.936933,237.891862 144.339985,239.180282 C144.743038,240.468701 145.710349,241.112901 147.241948,241.112901 C148.289885,241.112901 149.095977,241.032376 149.660251,240.871324 C150.950019,240.710271 151.836721,240.629746 152.320384,240.629746 C155.302972,240.629746 156.794244,241.958409 156.794244,244.615775 C156.794244,247.353666 154.980535,248.722592 151.353063,248.722592 C150.546958,248.722592 149.317666,248.621935 147.665151,248.42062 C146.012636,248.219304 144.783345,248.118648 143.97724,248.118648 C143.735408,248.118648 142.808402,248.199173 141.196192,248.360225 C140.228866,248.601804 139.382469,248.722592 138.656974,248.722592 C136.480491,248.722592 135.392266,247.273141 135.392266,244.374197 L135.392266,243.770254 L135.513181,241.716845 C131.240825,247.434207 125.03391,250.292845 116.892251,250.292845 C108.669981,250.292845 102.06002,247.313419 97.0621697,241.354479 C92.0643194,235.395538 89.5654317,227.584612 89.5654317,217.921465 C89.5654317,208.177792 92.0240148,200.386996 96.9412546,194.548845 C101.858494,188.710694 108.428151,185.791662 116.650421,185.791662 L116.650421,185.791662 Z M133.820369,228.430085 C134.142811,225.772719 134.30403,222.350406 134.30403,218.163042 C134.30403,212.767785 134.102506,209.103897 133.699454,207.171268 C132.973959,203.144956 131.24086,200.004481 128.500103,197.749746 C125.275684,195.092381 121.567657,193.763718 117.375911,193.763718 C111.733177,193.763718 107.319819,195.897631 104.135705,200.165521 C100.95159,204.433411 99.3595572,210.271475 99.3595572,217.679887 C99.3595572,225.329879 101.012047,231.349124 104.317077,235.737803 C107.622108,240.126482 112.136227,242.320789 117.859572,242.320789 C122.212538,242.320789 125.839956,241.05252 128.741934,238.515944 C131.643911,235.979368 133.336706,232.617448 133.820369,228.430085 L133.820369,228.430085 Z M214.108015,249.80969 C207.497955,249.80969 203.427186,246.951052 201.895587,241.23369 C197.784452,247.273157 191.335709,250.292845 182.549166,250.292845 C176.019716,250.292845 170.800266,248.682345 166.890657,245.461296 C162.981048,242.240247 161.026273,237.932158 161.026273,232.536901 C161.026273,225.853225 163.887903,220.941199 169.611247,217.800676 C171.78773,216.592783 173.661896,215.807664 175.233801,215.445296 C176.805705,215.082928 179.96962,214.619909 184.725638,214.056225 C191.496919,213.331489 195.910278,212.324927 197.965845,211.036507 C200.021412,209.748087 201.049181,207.372599 201.049181,203.909972 C201.049181,200.608397 199.900499,198.011465 197.6031,196.119099 C195.305701,194.226732 192.101482,193.280563 187.990347,193.280563 C184.362875,193.280563 180.977285,194.287126 177.833476,196.300282 C176.624319,197.105544 176.019749,197.951057 176.019749,198.836845 C176.019749,199.15895 176.382491,199.561575 177.107985,200.044732 C178.236532,200.849995 178.800797,202.21892 178.800797,204.151549 C178.800797,205.762074 178.21638,207.090737 177.047528,208.137577 C175.878676,209.184418 174.407556,209.707831 172.634125,209.707831 C170.538253,209.707831 168.785001,208.983106 167.374317,207.533634 C165.963634,206.084162 165.258303,204.312611 165.258303,202.21893 C165.258303,197.709461 167.49521,193.84426 171.969092,190.623211 C176.442974,187.402162 181.863948,185.791662 188.232177,185.791662 C202.903286,185.791662 210.238731,192.837601 210.238731,206.92969 L210.238731,231.329014 C210.238731,235.194273 210.31934,237.489236 210.480561,238.213972 C210.964224,241.03239 212.334582,242.441577 214.591675,242.441577 C217.413042,242.441577 218.823705,239.864777 218.823705,234.711099 L218.823705,228.792451 C218.823705,226.215612 220.073149,224.927211 222.572074,224.927211 C225.23222,224.927211 226.562273,226.859812 226.562273,230.72507 L226.562273,231.329014 L226.441358,238.213972 C226.280137,245.944489 222.169064,249.80969 214.108015,249.80969 L214.108015,249.80969 Z M200.686435,225.772732 L200.807351,217.196732 C199.03392,218.807257 197.159754,219.934607 195.184797,220.578817 C193.20984,221.223027 189.683184,221.786702 184.604723,222.269859 C175.415127,223.155648 170.820399,226.537698 170.820399,232.416113 C170.820399,235.476109 171.928776,237.89186 174.145565,239.663437 C176.362353,241.435014 179.365049,242.320789 183.153742,242.320789 C188.554644,242.320789 192.806784,240.851207 195.910288,237.912 C199.013792,234.972793 200.605825,230.926411 200.686435,225.772732 L200.686435,225.772732 Z M263.535488,227.38444 L263.535488,223.618168 C263.404043,221.503759 263.338322,219.719753 263.338322,218.266097 L225.088131,157.411067 C222.590683,153.44655 221.013371,151.13395 220.356148,150.473197 C218.384479,148.490939 215.95279,147.499825 213.061009,147.499825 C211.483673,147.499825 210.30069,147.565899 209.512022,147.69805 L207.737529,147.69805 C206.817416,147.8302 206.160203,147.896274 205.765869,147.896274 C199.719417,147.896274 196.696236,145.583674 196.696236,140.958405 C196.696236,136.200984 199.325089,133.82231 204.582874,133.82231 C206.685987,133.82231 209.31484,134.086607 212.469511,134.615209 C218.778852,135.672414 224.693771,136.201008 230.214445,136.201008 C234.289228,136.201008 240.401311,135.606339 248.550877,134.416984 C251.311214,134.020533 253.677181,133.82231 255.648851,133.82231 C261.03808,133.82231 263.732654,136.13491 263.732654,140.76018 C263.732654,145.253299 260.512309,147.499825 254.071523,147.499825 L252.099864,147.3016 L247.170715,147.3016 L243.227397,147.103375 C241.650061,146.971224 240.861406,147.499819 240.861406,148.689174 C240.861406,149.217776 240.927127,149.581185 241.058571,149.77941 C241.190016,149.977636 241.518623,150.539268 242.044401,151.464322 L272.210789,203.002783 L302.771509,151.464322 C303.428732,150.407117 303.757339,149.349929 303.757339,148.292724 C303.757339,147.103369 302.902962,146.5087 301.194182,146.5087 L300.79985,146.5087 L297.250863,146.706925 L292.124549,147.3016 C289.88999,147.565901 288.181236,147.69805 286.998234,147.69805 C281.609005,147.69805 278.914431,145.385449 278.914431,140.76018 C278.914431,136.13491 281.543284,133.82231 286.801068,133.82231 C288.772738,133.82231 291.138705,134.020533 293.899042,134.416984 C301.25994,135.474189 307.634908,136.002783 313.024138,136.002783 C318.676256,136.002783 324.919782,135.474189 331.754901,134.416984 C334.383794,134.020533 336.618319,133.82231 338.458543,133.82231 C343.453439,133.82231 345.950849,136.13491 345.950849,140.76018 C345.950849,144.988998 343.51916,147.103375 338.655709,147.103375 C336.68404,147.103375 335.17245,146.971226 334.120893,146.706925 C332.017779,146.442624 330.57191,146.310476 329.783242,146.310476 C326.365682,146.310476 323.605387,147.896258 321.502273,151.067872 L318.544784,155.627044 L279.703095,216.878523 L279.703095,225.203967 C279.703095,238.683324 280.261726,247.074759 281.379005,250.378523 C282.496284,253.682287 285.28944,255.334144 289.758557,255.334144 C290.810114,255.334144 292.420287,255.168958 294.589123,254.838582 C296.757959,254.508206 298.368131,254.34302 299.419688,254.34302 C303.494471,254.34302 305.531832,256.457397 305.531832,260.686215 C305.531832,265.443635 302.574373,267.82231 296.659365,267.82231 L295.476369,267.82231 C294.950591,267.690159 294.490542,267.624085 294.096208,267.624085 L283.252081,266.236511 C279.177298,265.707909 275.168298,265.443612 271.224959,265.443612 C267.018732,265.443612 263.009731,265.707909 259.197837,266.236511 L249.142375,267.624085 C248.879486,267.624085 248.485158,267.690159 247.959379,267.82231 L246.579218,267.82231 C240.66421,267.82231 237.706751,265.50971 237.706751,260.88444 C237.706751,256.523471 239.809833,254.34302 244.01606,254.34302 C245.067617,254.34302 246.612068,254.508206 248.64946,254.838582 C250.686851,255.168958 252.231303,255.334144 253.282859,255.334144 C258.803533,255.334144 262.155321,251.832207 263.338322,244.828227 C263.469767,243.638872 263.535488,237.824334 263.535488,227.38444 L263.535488,227.38444 Z M380.230288,249.80969 C373.620228,249.80969 369.549459,246.951052 368.01786,241.23369 C363.906725,247.273157 357.457982,250.292845 348.671439,250.292845 C342.141989,250.292845 336.922539,248.682345 333.01293,245.461296 C329.103321,242.240247 327.148546,237.932158 327.148546,232.536901 C327.148546,225.853225 330.010176,220.941199 335.73352,217.800676 C337.910004,216.592783 339.784169,215.807664 341.356074,215.445296 C342.927978,215.082928 346.091893,214.619909 350.847911,214.056225 C357.619193,213.331489 362.032551,212.324927 364.088118,211.036507 C366.143686,209.748087 367.171454,207.372599 367.171454,203.909972 C367.171454,200.608397 366.022772,198.011465 363.725373,196.119099 C361.427974,194.226732 358.223755,193.280563 354.11262,193.280563 C350.485148,193.280563 347.099558,194.287126 343.955749,196.300282 C342.746592,197.105544 342.142022,197.951057 342.142022,198.836845 C342.142022,199.15895 342.504764,199.561575 343.230258,200.044732 C344.358805,200.849995 344.92307,202.21892 344.92307,204.151549 C344.92307,205.762074 344.338653,207.090737 343.169801,208.137577 C342.000949,209.184418 340.529829,209.707831 338.756399,209.707831 C336.660526,209.707831 334.907274,208.983106 333.49659,207.533634 C332.085907,206.084162 331.380576,204.312611 331.380576,202.21893 C331.380576,197.709461 333.617483,193.84426 338.091365,190.623211 C342.565247,187.402162 347.986222,185.791662 354.35445,185.791662 C369.025559,185.791662 376.361004,192.837601 376.361004,206.92969 L376.361004,231.329014 C376.361004,235.194273 376.441613,237.489236 376.602834,238.213972 C377.086497,241.03239 378.456855,242.441577 380.713948,242.441577 C383.535315,242.441577 384.945978,239.864777 384.945978,234.711099 L384.945978,228.792451 C384.945978,226.215612 386.195422,224.927211 388.694347,224.927211 C391.354493,224.927211 392.684546,226.859812 392.684546,230.72507 L392.684546,231.329014 L392.563631,238.213972 C392.40241,245.944489 388.291337,249.80969 380.230288,249.80969 L380.230288,249.80969 Z M366.808708,225.772732 L366.929624,217.196732 C365.156193,218.807257 363.282027,219.934607 361.30707,220.578817 C359.332113,221.223027 355.805457,221.786702 350.726996,222.269859 C341.537401,223.155648 336.942672,226.537698 336.942672,232.416113 C336.942672,235.476109 338.051049,237.89186 340.267838,239.663437 C342.484626,241.435014 345.487322,242.320789 349.276015,242.320789 C354.676918,242.320789 358.929057,240.851207 362.032561,237.912 C365.136065,234.972793 366.728098,230.926411 366.808708,225.772732 L366.808708,225.772732 Z M414.570185,191.468732 L414.570185,194.971606 C417.472162,191.508978 420.212878,189.113359 422.792413,187.784676 C425.371949,186.455993 428.59632,185.791662 432.465624,185.791662 C440.365452,185.791662 446.16932,188.851613 449.877402,194.971606 C452.618159,191.589504 455.399179,189.214016 458.220546,187.84507 C461.041913,186.476125 464.669331,185.791662 469.102908,185.791662 C473.697706,185.791662 477.808779,186.757962 481.436251,188.690592 C485.466775,190.8648 488.247796,193.92475 489.779395,197.870535 C490.827331,200.527901 491.351292,204.715201 491.351292,210.432563 L491.351292,222.14907 L491.230376,231.208225 C491.230376,234.509801 491.270681,236.522926 491.351292,237.247662 C491.754344,240.146606 492.802265,241.596056 494.495085,241.596056 C495.059358,241.596056 495.905756,241.475269 497.034303,241.23369 C498.162849,240.992111 499.009247,240.871324 499.57352,240.871324 C502.394887,240.871324 503.80555,242.079199 503.80555,244.494986 C503.80555,247.313404 502.193364,248.722592 498.968945,248.722592 C497.759787,248.722592 495.925926,248.581673 493.467306,248.299831 C491.008686,248.017989 489.134521,247.87707 487.844753,247.87707 C486.474374,247.87707 484.479295,248.017989 481.859454,248.299831 C479.239613,248.581673 477.244533,248.722592 475.874155,248.722592 C472.488514,248.722592 470.79572,247.313404 470.79572,244.494986 C470.79572,242.079199 472.085468,240.871324 474.665004,240.871324 C474.987446,240.871324 475.793538,240.951849 477.083306,241.112901 C477.566969,241.273954 478.211843,241.354479 479.017948,241.354479 C480.388327,241.354479 481.254876,240.670016 481.617624,239.30107 C481.980371,237.932125 482.202046,234.509811 482.282657,229.034028 L482.403572,221.665915 L482.403572,213.693859 C482.403572,208.13755 481.980373,204.091168 481.133963,201.554592 C480.287553,199.018015 478.69552,197.025021 476.357815,195.575549 C474.020111,194.126077 471.360005,193.401352 468.377417,193.401352 C462.654072,193.401352 458.663913,195.374215 456.406819,199.32 C454.633388,202.460523 453.746686,207.936224 453.746686,215.747268 L453.746686,224.323268 C453.746686,231.892733 453.928057,236.623577 454.290804,238.515944 C454.653552,240.40831 455.600711,241.354479 457.13231,241.354479 C457.615973,241.354479 458.321304,241.253823 459.248325,241.052507 C460.175345,240.851191 460.880677,240.750535 461.364339,240.750535 C462.492886,240.750535 463.440045,241.133029 464.205845,241.898028 C464.971645,242.663027 465.354539,243.609196 465.354539,244.736563 C465.354539,247.393929 463.460221,248.722592 459.671528,248.722592 C458.46237,248.722592 456.668814,248.561542 454.290804,248.239437 C451.912795,247.917332 450.119239,247.756282 448.910081,247.756282 C447.217261,247.756282 445.363247,247.917332 443.347985,248.239437 C441.332723,248.561542 439.559319,248.722592 438.02772,248.722592 C434.72269,248.722592 433.070199,247.353666 433.070199,244.615775 C433.070199,242.119462 434.279338,240.871324 436.697653,240.871324 C437.584369,240.871324 438.269547,240.951849 438.75321,241.112901 C439.881757,241.35448 440.728155,241.475268 441.292428,241.475268 C443.22708,241.475268 444.234696,239.42188 444.315306,235.315042 L444.436221,229.637972 C444.516832,227.866395 444.557137,226.135107 444.557137,224.444056 C444.637747,222.994584 444.678052,222.229597 444.678052,222.14907 L444.678052,212.123606 C444.678052,205.117824 443.730893,200.246061 441.836546,197.508169 C439.9422,194.770277 436.576762,193.401352 431.740133,193.401352 C426.419841,193.401352 422.349072,195.333953 419.527705,199.199211 C417.190001,202.339734 416.021166,207.815435 416.021166,215.626479 L416.021166,231.69138 C416.021166,234.912429 416.061471,236.804767 416.142081,237.368451 C416.464523,240.106342 417.351225,241.475268 418.802214,241.475268 C419.205266,241.475268 420.051664,241.314218 421.341432,240.992113 C421.502653,240.992113 421.744481,240.95185 422.066923,240.871324 L422.913328,240.871324 C426.057137,240.871324 427.629018,242.199987 427.629018,244.857352 C427.629018,247.434191 425.81531,248.722592 422.187838,248.722592 C420.817459,248.722592 419.124664,248.601804 417.109402,248.360225 C414.368646,248.03812 412.030976,247.87707 410.096325,247.87707 C409.128999,247.87707 407.355595,247.997858 404.776059,248.239437 C401.309808,248.561542 399.213967,248.722592 398.488472,248.722592 C395.264053,248.722592 393.651867,247.353666 393.651867,244.615775 C393.651867,242.119462 395.183443,240.871324 398.246642,240.871324 L398.972133,240.871324 C399.294575,240.95185 399.536403,240.992113 399.697624,240.992113 L402.720502,241.596056 C402.801112,241.676583 402.962331,241.716845 403.204162,241.716845 C405.380646,241.716845 406.54948,239.743982 406.710701,235.798197 L406.952531,228.913239 L406.952531,210.432563 C406.952531,203.587834 406.77116,199.320008 406.408413,197.628958 C406.045666,195.937907 405.058202,195.092394 403.445993,195.092394 C403.123551,195.092394 401.995021,195.293707 400.060369,195.696338 C399.254264,195.85739 398.60939,195.937915 398.125727,195.937915 C395.143139,195.937915 393.651867,194.649515 393.651867,192.072676 C393.651867,189.334784 395.304357,187.965859 398.609387,187.965859 C399.496103,187.965859 400.705242,188.046384 402.236841,188.207437 C403.768441,188.368489 405.098494,188.449014 406.227041,188.449014 C406.630093,188.449014 407.073444,188.408752 407.557107,188.328225 L408.403513,188.328225 L411.305476,187.965859 L411.668221,187.965859 C413.602873,187.965859 414.570185,189.133472 414.570185,191.468732 L414.570185,191.468732 Z" id="UdaYam" fill="#8F7140"></path>
                <path d="M11.2804428,141.605634 L177.538745,141.605634" id="Line" stroke="#979797" stroke-width="1.88929889" stroke-linecap="square"></path>
                <path d="M370.247232,139.71831 L504.387454,139.71831" id="Line" stroke="#979797" stroke-width="1.88929889" stroke-linecap="square"></path>
                <path d="M18.8376384,262.394366 L230.439114,262.394366" id="Line" stroke="#979797" stroke-width="1.88929889" stroke-linecap="square"></path>
                <path d="M317.346863,258.619718 L510.055351,258.619718" id="Line" stroke="#979797" stroke-width="1.88929889" stroke-linecap="square"></path>
            </g>
        </g>
    </g>
</svg>