<?xml version="1.0" encoding="UTF-8"?>
<svg width="512px" height="268px" viewBox="0 0 512 268" version="1.1" xmlns="http://www.w3.org/2000/svg" xmlns:xlink="http://www.w3.org/1999/xlink">
    <!-- Generator: Sketch 3.6.1 (26313) - http://www.bohemiancoding.com/sketch -->
    <title>udayam@1.5x</title>
    <desc>Created with Sketch.</desc>
    <defs></defs>
    <g id="Page-1" stroke="none" stroke-width="1" fill="none" fill-rule="evenodd">
        <g id="udayam">
            <g>
                <g id="sun" transform="translate(128.472325, 0.000000)">
                    <g id="sun@1.5x" transform="translate(140.952673, 132.112676) rotate(-225.000000) translate(-140.952673, -132.112676) translate(46.984224, 38.768107)">
                        <g id="Page-1">
                            <g id="sun">
                                <g id="summer">
                                    <g id="Layer_1">
                                        <path d="M93.9684484,153.566871 C60.3216814,153.566871 33.343643,126.466835 33.343643,93.3445688 C33.343643,60.2223025 60.6248054,33.1222664 93.9684484,33.1222664 C127.312091,33.1222664 154.593254,60.2223025 154.593254,93.3445688 C154.593254,126.466835 127.615215,153.566871 93.9684484,153.566871 L93.9684484,153.566871 L93.9684484,153.566871 Z M93.9684484,59.921191 C75.4778827,59.921191 60.3216814,74.9767666 60.3216814,93.3445688 C60.3216814,111.712371 75.4778827,126.767947 93.9684484,126.767947 C112.459014,126.767947 127.615215,111.712371 127.615215,93.3445688 C127.615215,74.9767666 112.459014,59.921191 93.9684484,59.921191 L93.9684484,59.921191 L93.9684484,59.921191 Z" id="Shape" fill="#F7B208"></path>
                                        <ellipse id="Oval" fill="#F4840B" cx="93.9684484" cy="8.43112235" rx="8.48747276" ry="8.43112235"></ellipse>
                                        <ellipse id="Oval" fill="#F7B208" cx="93.9684484" cy="178.258015" rx="8.48747276" ry="8.43112235"></ellipse>
                                        <path d="M58.5029372,15.6577986 C60.9279294,19.5722483 59.4123093,24.691144 55.471697,27.1000361 C51.5310846,29.5089282 46.3779761,28.0033707 43.9529839,24.088921 C41.5279917,20.1744713 43.0436118,15.0555756 46.9842242,12.6466835 C50.9248366,10.2377914 56.077945,11.4422375 58.5029372,15.6577986 L58.5029372,15.6577986 L58.5029372,15.6577986 Z" id="Shape" fill="#F4840B"></path>
                                        <g id="Group" transform="translate(11.367151, 42.155612)" fill="#F7B208">
                                            <ellipse id="Oval" cx="125.341785" cy="124.660166" rx="8.48747276" ry="8.43112235"></ellipse>
                                            <path d="M12.8827712,1.50555756 C16.8233835,3.91444966 18.3390036,9.03334537 15.9140114,12.947795 C13.4890192,16.8622447 8.33591074,18.3678023 4.39529839,15.9589102 C0.454686041,13.5500181 -1.06093409,8.43112235 1.36405812,4.51667269 C3.48592631,0.602223025 8.63903477,-0.903334537 12.8827712,1.50555756 L12.8827712,1.50555756 L12.8827712,1.50555756 Z" id="Shape"></path>
                                        </g>
                                        <ellipse id="Oval" fill="#F4840B" cx="167.930711" cy="135.801292" rx="8.48747276" ry="8.43112235"></ellipse>
                                        <path d="M16.9749455,93.3445688 C16.9749455,97.8612415 13.3374572,101.775691 8.48747276,101.775691 C3.63748833,101.775691 0,97.8612415 0,93.3445688 C0,88.8278962 3.63748833,84.9134465 8.48747276,84.9134465 C13.0343332,84.9134465 16.9749455,88.5267846 16.9749455,93.3445688 Z" id="Shape" fill="#F7B208"></path>
                                        <path d="M179.449424,84.9134465 C183.996284,84.9134465 187.936897,88.5267846 187.936897,93.3445688 C187.936897,97.8612415 184.299408,101.775691 179.449424,101.775691 C174.59944,101.775691 170.961951,98.162353 170.961951,93.3445688 C170.961951,88.8278962 174.902564,84.9134465 179.449424,84.9134465 L179.449424,84.9134465 L179.449424,84.9134465 Z" id="Shape" fill="#F4840B"></path>
                                        <ellipse id="Oval" fill="#F7B208" cx="20.0061858" cy="135.801292" rx="8.48747276" ry="8.43112235"></ellipse>
                                        <path d="M163.686975,43.6611693 C167.627587,41.2522772 172.780695,42.7578348 175.205688,46.6722844 C177.63068,50.5867341 176.11506,55.7056298 172.174447,58.1145219 C168.233835,60.523414 163.080727,59.0178564 160.655734,55.1034068 C158.533866,51.1889571 159.746362,45.7689499 163.686975,43.6611693 L163.686975,43.6611693 L163.686975,43.6611693 Z" id="Shape" fill="#F4840B"></path>
                                        <path d="M43.9529839,162.600217 C46.3779761,158.685767 51.5310846,157.180209 55.471697,159.589102 C59.4123093,161.997994 60.9279294,167.116889 58.5029372,171.031339 C56.077945,174.945789 50.9248366,176.451346 46.9842242,174.042454 C43.0436118,171.934674 41.5279917,166.815778 43.9529839,162.600217 L43.9529839,162.600217 L43.9529839,162.600217 Z" id="Shape" fill="#F7B208"></path>
                                        <g id="Group" transform="translate(45.847509, 11.291682)" fill="#F4840B">
                                            <path d="M83.5864505,4.36611693 C86.0114427,0.451667269 91.1645511,-1.05389029 95.1051635,1.35500181 C99.0457759,3.7638939 100.561396,8.88278962 98.1364038,12.7972393 C95.7114116,16.7116889 90.5583031,18.2172465 86.6176907,15.8083544 C82.6770784,13.3994623 81.1614583,8.28056659 83.5864505,4.36611693 L83.5864505,4.36611693 L83.5864505,4.36611693 Z" id="Shape"></path>
                                            <path d="M0.22734302,45.3172826 L19.6272808,64.5884194 C25.6897613,55.2539625 36.2991022,48.9306208 48.1209393,48.9306208 C66.611505,48.9306208 81.7677063,63.9861964 81.7677063,82.3539986 C81.7677063,94.3984591 75.4021017,104.937362 66.0052569,110.658481 L85.4051946,129.929618 C99.6520239,118.48738 108.745745,101.324024 108.745745,82.0528871 C108.745745,48.6295092 81.7677063,21.8305846 48.1209393,21.8305846 C28.7210016,21.8305846 11.442932,31.1650415 0.22734302,45.3172826 Z" id="Shape"></path>
                                        </g>
                                    </g>
                                </g>
                            </g>
                        </g>
                    </g>
                    <rect id="Rectangle-1" fill="#FFFFFF" x="0" y="124.584888" width="261.823378" height="112.916817"></rect>
                </g>
                <path d="M25.0294317,185.274817 L24.7876015,193.005296 L24.303941,202.789183 L24.303941,221.390648 C24.303941,227.027484 24.9286629,231.134259 26.1781255,233.711099 C27.427588,236.287938 29.7854095,238.301063 33.2516605,239.750535 C36.4760801,241.119481 39.7810606,241.803944 43.1667011,241.803944 C47.600278,241.803944 51.3889142,240.958431 54.5327232,239.26738 C57.6765323,237.57633 59.7119166,235.301498 60.6389373,232.442817 C61.5659579,229.584136 62.0697659,225.940379 62.1503764,221.511437 L62.3922066,190.468732 C62.3922066,184.348739 62.3115974,180.886164 62.1503764,180.080901 C61.424882,175.974064 59.3693453,173.920676 55.9837048,173.920676 C55.4194314,173.920676 54.6133386,174.001201 53.5654022,174.162254 C52.0338029,174.403832 50.9455776,174.52462 50.3006937,174.52462 C49.2527574,174.52462 48.345903,174.121995 47.5801033,173.316732 C46.8143037,172.51147 46.4314096,171.585432 46.4314096,170.538592 C46.4314096,167.639647 48.2048138,166.190197 51.7516753,166.190197 C52.3159487,166.190197 52.8802137,166.23046 53.4444871,166.310986 L60.5784797,167.277296 C62.3519105,167.518874 64.3671425,167.639662 66.6242362,167.639662 C68.8007194,167.639662 70.6144282,167.518874 72.065417,167.277296 L77.2647675,166.431775 C78.7157563,166.190196 79.6830677,166.069408 80.1667306,166.069408 C83.5523712,166.069408 85.2451661,167.438334 85.2451661,170.176225 C85.2451661,172.914117 83.5926758,174.283042 80.2876458,174.283042 L78.9575793,174.283042 C78.7157479,174.202516 78.3127015,174.162254 77.748428,174.162254 C75.3301134,174.162254 73.8388417,175.370129 73.2745683,177.785915 C72.7102948,180.201702 72.4281624,186.402128 72.4281624,196.38738 L72.4281624,217.525408 C72.4281624,222.759613 72.2669438,226.544289 71.9445018,228.879549 C71.2996179,232.905861 69.9292602,236.408699 67.8333875,239.388169 C62.9967581,246.393951 54.8149162,249.896789 43.2876162,249.896789 C29.1001701,249.896789 19.9510169,245.2666 15.8398819,236.006085 C14.5501141,233.187667 13.9052399,228.799053 13.9052399,222.840113 C13.9052399,219.941169 14.0261538,215.653211 14.2679852,209.976113 C14.5098167,204.299014 14.6307306,200.011057 14.6307306,197.112113 L14.6307306,190.71031 C14.6307306,184.831895 14.590426,181.53037 14.5098155,180.805634 C13.9455421,176.376691 12.3736611,174.162254 9.79412546,174.162254 L8.94771956,174.162254 C8.54466711,174.24278 8.18192535,174.303174 7.85948339,174.343437 C7.53704144,174.3837 7.01308112,174.403831 6.28758672,174.403831 C2.90194617,174.403831 1.20915129,173.034906 1.20915129,170.297014 C1.20915129,167.559122 2.74072761,166.190197 5.8039262,166.190197 C7.09369403,166.190197 8.46405179,166.310985 9.91504059,166.552563 C13.8649546,167.196773 17.5326768,167.518873 20.9183173,167.518873 C24.3845684,167.518873 28.3747277,167.156511 32.8889151,166.431775 C33.856241,166.270722 34.9041616,166.190197 36.0327085,166.190197 C39.3377385,166.190197 40.9902288,167.559122 40.9902288,170.297014 C40.9902288,173.034906 39.5795664,174.403831 36.7581993,174.403831 C36.1133153,174.403831 35.146004,174.303175 33.8562362,174.101859 C32.5664683,173.900544 31.599157,173.799887 30.9542731,173.799887 C28.3747374,173.799887 26.6416379,175.168813 25.7549225,177.906704 C25.3518701,179.114598 25.1100422,181.570611 25.0294317,185.274817 L25.0294317,185.274817 Z M117.650421,184.791662 C125.630859,184.791662 131.595946,187.891875 135.54586,194.092394 L135.54586,181.892732 C135.54586,178.671683 135.46525,176.698821 135.30403,175.974085 C134.900977,173.477772 133.772447,172.229634 131.918406,172.229634 C131.273522,172.229634 130.366668,172.350421 129.197815,172.592 C128.028963,172.833579 127.122109,172.954366 126.477225,172.954366 C123.494637,172.954366 122.003365,171.665966 122.003365,169.089127 C122.003365,166.431761 124.018597,165.103099 128.049122,165.103099 C128.694006,165.103099 129.86284,165.183624 131.555661,165.344676 C134.135196,165.586255 135.465249,165.707042 135.54586,165.707042 C136.271354,165.707042 137.319275,165.626517 138.689653,165.465465 C140.060031,165.304412 141.107952,165.223887 141.833446,165.223887 C144.09054,165.223887 145.21907,166.834388 145.21907,170.055437 L145.21907,171.384113 C145.13846,171.625691 145.05785,173.759604 144.97724,177.785915 C144.97724,178.269073 144.856326,181.369286 144.614494,187.086648 C144.453273,191.112959 144.372664,194.17291 144.372664,196.266592 L144.372664,208.103887 L144.614494,228.275606 C144.695105,233.590336 144.936933,236.891862 145.339985,238.180282 C145.743038,239.468701 146.710349,240.112901 148.241948,240.112901 C149.289885,240.112901 150.095977,240.032376 150.660251,239.871324 C151.950019,239.710271 152.836721,239.629746 153.320384,239.629746 C156.302972,239.629746 157.794244,240.958409 157.794244,243.615775 C157.794244,246.353666 155.980535,247.722592 152.353063,247.722592 C151.546958,247.722592 150.317666,247.621935 148.665151,247.42062 C147.012636,247.219304 145.783345,247.118648 144.97724,247.118648 C144.735408,247.118648 143.808402,247.199173 142.196192,247.360225 C141.228866,247.601804 140.382469,247.722592 139.656974,247.722592 C137.480491,247.722592 136.392266,246.273141 136.392266,243.374197 L136.392266,242.770254 L136.513181,240.716845 C132.240825,246.434207 126.03391,249.292845 117.892251,249.292845 C109.669981,249.292845 103.06002,246.313419 98.0621697,240.354479 C93.0643194,234.395538 90.5654317,226.584612 90.5654317,216.921465 C90.5654317,207.177792 93.0240148,199.386996 97.9412546,193.548845 C102.858494,187.710694 109.428151,184.791662 117.650421,184.791662 L117.650421,184.791662 Z M134.820369,227.430085 C135.142811,224.772719 135.30403,221.350406 135.30403,217.163042 C135.30403,211.767785 135.102506,208.103897 134.699454,206.171268 C133.973959,202.144956 132.24086,199.004481 129.500103,196.749746 C126.275684,194.092381 122.567657,192.763718 118.375911,192.763718 C112.733177,192.763718 108.319819,194.897631 105.135705,199.165521 C101.95159,203.433411 100.359557,209.271475 100.359557,216.679887 C100.359557,224.329879 102.012047,230.349124 105.317077,234.737803 C108.622108,239.126482 113.136227,241.320789 118.859572,241.320789 C123.212538,241.320789 126.839956,240.05252 129.741934,237.515944 C132.643911,234.979368 134.336706,231.617448 134.820369,227.430085 L134.820369,227.430085 Z M215.108015,248.80969 C208.497955,248.80969 204.427186,245.951052 202.895587,240.23369 C198.784452,246.273157 192.335709,249.292845 183.549166,249.292845 C177.019716,249.292845 171.800266,247.682345 167.890657,244.461296 C163.981048,241.240247 162.026273,236.932158 162.026273,231.536901 C162.026273,224.853225 164.887903,219.941199 170.611247,216.800676 C172.78773,215.592783 174.661896,214.807664 176.233801,214.445296 C177.805705,214.082928 180.96962,213.619909 185.725638,213.056225 C192.496919,212.331489 196.910278,211.324927 198.965845,210.036507 C201.021412,208.748087 202.049181,206.372599 202.049181,202.909972 C202.049181,199.608397 200.900499,197.011465 198.6031,195.119099 C196.305701,193.226732 193.101482,192.280563 188.990347,192.280563 C185.362875,192.280563 181.977285,193.287126 178.833476,195.300282 C177.624319,196.105544 177.019749,196.951057 177.019749,197.836845 C177.019749,198.15895 177.382491,198.561575 178.107985,199.044732 C179.236532,199.849995 179.800797,201.21892 179.800797,203.151549 C179.800797,204.762074 179.21638,206.090737 178.047528,207.137577 C176.878676,208.184418 175.407556,208.707831 173.634125,208.707831 C171.538253,208.707831 169.785001,207.983106 168.374317,206.533634 C166.963634,205.084162 166.258303,203.312611 166.258303,201.21893 C166.258303,196.709461 168.49521,192.84426 172.969092,189.623211 C177.442974,186.402162 182.863948,184.791662 189.232177,184.791662 C203.903286,184.791662 211.238731,191.837601 211.238731,205.92969 L211.238731,230.329014 C211.238731,234.194273 211.31934,236.489236 211.480561,237.213972 C211.964224,240.03239 213.334582,241.441577 215.591675,241.441577 C218.413042,241.441577 219.823705,238.864777 219.823705,233.711099 L219.823705,227.792451 C219.823705,225.215612 221.073149,223.927211 223.572074,223.927211 C226.23222,223.927211 227.562273,225.859812 227.562273,229.72507 L227.562273,230.329014 L227.441358,237.213972 C227.280137,244.944489 223.169064,248.80969 215.108015,248.80969 L215.108015,248.80969 Z M201.686435,224.772732 L201.807351,216.196732 C200.03392,217.807257 198.159754,218.934607 196.184797,219.578817 C194.20984,220.223027 190.683184,220.786702 185.604723,221.269859 C176.415127,222.155648 171.820399,225.537698 171.820399,231.416113 C171.820399,234.476109 172.928776,236.89186 175.145565,238.663437 C177.362353,240.435014 180.365049,241.320789 184.153742,241.320789 C189.554644,241.320789 193.806784,239.851207 196.910288,236.912 C200.013792,233.972793 201.605825,229.926411 201.686435,224.772732 L201.686435,224.772732 Z M264.535488,226.38444 L264.535488,222.618168 C264.404043,220.503759 264.338322,218.719753 264.338322,217.266097 L226.088131,156.411067 C223.590683,152.44655 222.013371,150.13395 221.356148,149.473197 C219.384479,147.490939 216.95279,146.499825 214.061009,146.499825 C212.483673,146.499825 211.30069,146.565899 210.512022,146.69805 L208.737529,146.69805 C207.817416,146.8302 207.160203,146.896274 206.765869,146.896274 C200.719417,146.896274 197.696236,144.583674 197.696236,139.958405 C197.696236,135.200984 200.325089,132.82231 205.582874,132.82231 C207.685987,132.82231 210.31484,133.086607 213.469511,133.615209 C219.778852,134.672414 225.693771,135.201008 231.214445,135.201008 C235.289228,135.201008 241.401311,134.606339 249.550877,133.416984 C252.311214,133.020533 254.677181,132.82231 256.648851,132.82231 C262.03808,132.82231 264.732654,135.13491 264.732654,139.76018 C264.732654,144.253299 261.512309,146.499825 255.071523,146.499825 L253.099864,146.3016 L248.170715,146.3016 L244.227397,146.103375 C242.650061,145.971224 241.861406,146.499819 241.861406,147.689174 C241.861406,148.217776 241.927127,148.581185 242.058571,148.77941 C242.190016,148.977636 242.518623,149.539268 243.044401,150.464322 L273.210789,202.002783 L303.771509,150.464322 C304.428732,149.407117 304.757339,148.349929 304.757339,147.292724 C304.757339,146.103369 303.902962,145.5087 302.194182,145.5087 L301.79985,145.5087 L298.250863,145.706925 L293.124549,146.3016 C290.88999,146.565901 289.181236,146.69805 287.998234,146.69805 C282.609005,146.69805 279.914431,144.385449 279.914431,139.76018 C279.914431,135.13491 282.543284,132.82231 287.801068,132.82231 C289.772738,132.82231 292.138705,133.020533 294.899042,133.416984 C302.25994,134.474189 308.634908,135.002783 314.024138,135.002783 C319.676256,135.002783 325.919782,134.474189 332.754901,133.416984 C335.383794,133.020533 337.618319,132.82231 339.458543,132.82231 C344.453439,132.82231 346.950849,135.13491 346.950849,139.76018 C346.950849,143.988998 344.51916,146.103375 339.655709,146.103375 C337.68404,146.103375 336.17245,145.971226 335.120893,145.706925 C333.017779,145.442624 331.57191,145.310476 330.783242,145.310476 C327.365682,145.310476 324.605387,146.896258 322.502273,150.067872 L319.544784,154.627044 L280.703095,215.878523 L280.703095,224.203967 C280.703095,237.683324 281.261726,246.074759 282.379005,249.378523 C283.496284,252.682287 286.28944,254.334144 290.758557,254.334144 C291.810114,254.334144 293.420287,254.168958 295.589123,253.838582 C297.757959,253.508206 299.368131,253.34302 300.419688,253.34302 C304.494471,253.34302 306.531832,255.457397 306.531832,259.686215 C306.531832,264.443635 303.574373,266.82231 297.659365,266.82231 L296.476369,266.82231 C295.950591,266.690159 295.490542,266.624085 295.096208,266.624085 L284.252081,265.236511 C280.177298,264.707909 276.168298,264.443612 272.224959,264.443612 C268.018732,264.443612 264.009731,264.707909 260.197837,265.236511 L250.142375,266.624085 C249.879486,266.624085 249.485158,266.690159 248.959379,266.82231 L247.579218,266.82231 C241.66421,266.82231 238.706751,264.50971 238.706751,259.88444 C238.706751,255.523471 240.809833,253.34302 245.01606,253.34302 C246.067617,253.34302 247.612068,253.508206 249.64946,253.838582 C251.686851,254.168958 253.231303,254.334144 254.282859,254.334144 C259.803533,254.334144 263.155321,250.832207 264.338322,243.828227 C264.469767,242.638872 264.535488,236.824334 264.535488,226.38444 L264.535488,226.38444 Z M381.230288,248.80969 C374.620228,248.80969 370.549459,245.951052 369.01786,240.23369 C364.906725,246.273157 358.457982,249.292845 349.671439,249.292845 C343.141989,249.292845 337.922539,247.682345 334.01293,244.461296 C330.103321,241.240247 328.148546,236.932158 328.148546,231.536901 C328.148546,224.853225 331.010176,219.941199 336.73352,216.800676 C338.910004,215.592783 340.784169,214.807664 342.356074,214.445296 C343.927978,214.082928 347.091893,213.619909 351.847911,213.056225 C358.619193,212.331489 363.032551,211.324927 365.088118,210.036507 C367.143686,208.748087 368.171454,206.372599 368.171454,202.909972 C368.171454,199.608397 367.022772,197.011465 364.725373,195.119099 C362.427974,193.226732 359.223755,192.280563 355.11262,192.280563 C351.485148,192.280563 348.099558,193.287126 344.955749,195.300282 C343.746592,196.105544 343.142022,196.951057 343.142022,197.836845 C343.142022,198.15895 343.504764,198.561575 344.230258,199.044732 C345.358805,199.849995 345.92307,201.21892 345.92307,203.151549 C345.92307,204.762074 345.338653,206.090737 344.169801,207.137577 C343.000949,208.184418 341.529829,208.707831 339.756399,208.707831 C337.660526,208.707831 335.907274,207.983106 334.49659,206.533634 C333.085907,205.084162 332.380576,203.312611 332.380576,201.21893 C332.380576,196.709461 334.617483,192.84426 339.091365,189.623211 C343.565247,186.402162 348.986222,184.791662 355.35445,184.791662 C370.025559,184.791662 377.361004,191.837601 377.361004,205.92969 L377.361004,230.329014 C377.361004,234.194273 377.441613,236.489236 377.602834,237.213972 C378.086497,240.03239 379.456855,241.441577 381.713948,241.441577 C384.535315,241.441577 385.945978,238.864777 385.945978,233.711099 L385.945978,227.792451 C385.945978,225.215612 387.195422,223.927211 389.694347,223.927211 C392.354493,223.927211 393.684546,225.859812 393.684546,229.72507 L393.684546,230.329014 L393.563631,237.213972 C393.40241,244.944489 389.291337,248.80969 381.230288,248.80969 L381.230288,248.80969 Z M367.808708,224.772732 L367.929624,216.196732 C366.156193,217.807257 364.282027,218.934607 362.30707,219.578817 C360.332113,220.223027 356.805457,220.786702 351.726996,221.269859 C342.537401,222.155648 337.942672,225.537698 337.942672,231.416113 C337.942672,234.476109 339.051049,236.89186 341.267838,238.663437 C343.484626,240.435014 346.487322,241.320789 350.276015,241.320789 C355.676918,241.320789 359.929057,239.851207 363.032561,236.912 C366.136065,233.972793 367.728098,229.926411 367.808708,224.772732 L367.808708,224.772732 Z M415.570185,190.468732 L415.570185,193.971606 C418.472162,190.508978 421.212878,188.113359 423.792413,186.784676 C426.371949,185.455993 429.59632,184.791662 433.465624,184.791662 C441.365452,184.791662 447.16932,187.851613 450.877402,193.971606 C453.618159,190.589504 456.399179,188.214016 459.220546,186.84507 C462.041913,185.476125 465.669331,184.791662 470.102908,184.791662 C474.697706,184.791662 478.808779,185.757962 482.436251,187.690592 C486.466775,189.8648 489.247796,192.92475 490.779395,196.870535 C491.827331,199.527901 492.351292,203.715201 492.351292,209.432563 L492.351292,221.14907 L492.230376,230.208225 C492.230376,233.509801 492.270681,235.522926 492.351292,236.247662 C492.754344,239.146606 493.802265,240.596056 495.495085,240.596056 C496.059358,240.596056 496.905756,240.475269 498.034303,240.23369 C499.162849,239.992111 500.009247,239.871324 500.57352,239.871324 C503.394887,239.871324 504.80555,241.079199 504.80555,243.494986 C504.80555,246.313404 503.193364,247.722592 499.968945,247.722592 C498.759787,247.722592 496.925926,247.581673 494.467306,247.299831 C492.008686,247.017989 490.134521,246.87707 488.844753,246.87707 C487.474374,246.87707 485.479295,247.017989 482.859454,247.299831 C480.239613,247.581673 478.244533,247.722592 476.874155,247.722592 C473.488514,247.722592 471.79572,246.313404 471.79572,243.494986 C471.79572,241.079199 473.085468,239.871324 475.665004,239.871324 C475.987446,239.871324 476.793538,239.951849 478.083306,240.112901 C478.566969,240.273954 479.211843,240.354479 480.017948,240.354479 C481.388327,240.354479 482.254876,239.670016 482.617624,238.30107 C482.980371,236.932125 483.202046,233.509811 483.282657,228.034028 L483.403572,220.665915 L483.403572,212.693859 C483.403572,207.13755 482.980373,203.091168 482.133963,200.554592 C481.287553,198.018015 479.69552,196.025021 477.357815,194.575549 C475.020111,193.126077 472.360005,192.401352 469.377417,192.401352 C463.654072,192.401352 459.663913,194.374215 457.406819,198.32 C455.633388,201.460523 454.746686,206.936224 454.746686,214.747268 L454.746686,223.323268 C454.746686,230.892733 454.928057,235.623577 455.290804,237.515944 C455.653552,239.40831 456.600711,240.354479 458.13231,240.354479 C458.615973,240.354479 459.321304,240.253823 460.248325,240.052507 C461.175345,239.851191 461.880677,239.750535 462.364339,239.750535 C463.492886,239.750535 464.440045,240.133029 465.205845,240.898028 C465.971645,241.663027 466.354539,242.609196 466.354539,243.736563 C466.354539,246.393929 464.460221,247.722592 460.671528,247.722592 C459.46237,247.722592 457.668814,247.561542 455.290804,247.239437 C452.912795,246.917332 451.119239,246.756282 449.910081,246.756282 C448.217261,246.756282 446.363247,246.917332 444.347985,247.239437 C442.332723,247.561542 440.559319,247.722592 439.02772,247.722592 C435.72269,247.722592 434.070199,246.353666 434.070199,243.615775 C434.070199,241.119462 435.279338,239.871324 437.697653,239.871324 C438.584369,239.871324 439.269547,239.951849 439.75321,240.112901 C440.881757,240.35448 441.728155,240.475268 442.292428,240.475268 C444.22708,240.475268 445.234696,238.42188 445.315306,234.315042 L445.436221,228.637972 C445.516832,226.866395 445.557137,225.135107 445.557137,223.444056 C445.637747,221.994584 445.678052,221.229597 445.678052,221.14907 L445.678052,211.123606 C445.678052,204.117824 444.730893,199.246061 442.836546,196.508169 C440.9422,193.770277 437.576762,192.401352 432.740133,192.401352 C427.419841,192.401352 423.349072,194.333953 420.527705,198.199211 C418.190001,201.339734 417.021166,206.815435 417.021166,214.626479 L417.021166,230.69138 C417.021166,233.912429 417.061471,235.804767 417.142081,236.368451 C417.464523,239.106342 418.351225,240.475268 419.802214,240.475268 C420.205266,240.475268 421.051664,240.314218 422.341432,239.992113 C422.502653,239.992113 422.744481,239.95185 423.066923,239.871324 L423.913328,239.871324 C427.057137,239.871324 428.629018,241.199987 428.629018,243.857352 C428.629018,246.434191 426.81531,247.722592 423.187838,247.722592 C421.817459,247.722592 420.124664,247.601804 418.109402,247.360225 C415.368646,247.03812 413.030976,246.87707 411.096325,246.87707 C410.128999,246.87707 408.355595,246.997858 405.776059,247.239437 C402.309808,247.561542 400.213967,247.722592 399.488472,247.722592 C396.264053,247.722592 394.651867,246.353666 394.651867,243.615775 C394.651867,241.119462 396.183443,239.871324 399.246642,239.871324 L399.972133,239.871324 C400.294575,239.95185 400.536403,239.992113 400.697624,239.992113 L403.720502,240.596056 C403.801112,240.676583 403.962331,240.716845 404.204162,240.716845 C406.380646,240.716845 407.54948,238.743982 407.710701,234.798197 L407.952531,227.913239 L407.952531,209.432563 C407.952531,202.587834 407.77116,198.320008 407.408413,196.628958 C407.045666,194.937907 406.058202,194.092394 404.445993,194.092394 C404.123551,194.092394 402.995021,194.293707 401.060369,194.696338 C400.254264,194.85739 399.60939,194.937915 399.125727,194.937915 C396.143139,194.937915 394.651867,193.649515 394.651867,191.072676 C394.651867,188.334784 396.304357,186.965859 399.609387,186.965859 C400.496103,186.965859 401.705242,187.046384 403.236841,187.207437 C404.768441,187.368489 406.098494,187.449014 407.227041,187.449014 C407.630093,187.449014 408.073444,187.408752 408.557107,187.328225 L409.403513,187.328225 L412.305476,186.965859 L412.668221,186.965859 C414.602873,186.965859 415.570185,188.133472 415.570185,190.468732 L415.570185,190.468732 Z" id="UdaYam" fill="#8F7140"></path>
                <path d="M12.2804428,140.605634 L178.538745,140.605634" id="Line" stroke="#979797" stroke-width="1.88929889" stroke-linecap="square"></path>
                <path d="M371.247232,138.71831 L505.387454,138.71831" id="Line" stroke="#979797" stroke-width="1.88929889" stroke-linecap="square"></path>
                <path d="M19.8376384,261.394366 L231.439114,261.394366" id="Line" stroke="#979797" stroke-width="1.88929889" stroke-linecap="square"></path>
                <path d="M318.346863,257.619718 L511.055351,257.619718" id="Line" stroke="#979797" stroke-width="1.88929889" stroke-linecap="square"></path>
            </g>
        </g>
    </g>
</svg>